<svg width="41" height="41" viewBox="0 0 41 41" fill="none" xmlns="http://www.w3.org/2000/svg">
<circle cx="20.5" cy="20.5" r="20.5" fill="#FAFAFA"/>
<path d="M28.4641 15.8161H25.8978C25.6014 15.8161 25.3169 15.6877 25.1177 15.4624L24.0758 14.2792C23.9995 14.1914 23.9056 14.121 23.8002 14.0726C23.6949 14.0242 23.5805 13.9988 23.4647 13.9983C23.2286 13.9983 23.0106 14.1021 22.8536 14.2792L21.9579 15.2973C21.6672 15.6264 21.2438 15.8213 20.8084 15.8213H6.76198C6.3548 16.9887 6.0987 18.204 6 19.4374H19.2595C19.4951 19.4374 19.7131 19.3399 19.8764 19.1691L21.1111 17.8706C21.1865 17.7898 21.2774 17.7254 21.3784 17.6813C21.4794 17.6372 21.5883 17.6145 21.6984 17.6144H21.7467C21.9824 17.6144 22.2003 17.7182 22.3579 17.8947L23.3986 19.0774C23.5984 19.3027 23.8824 19.4311 24.1794 19.4311H35C34.8998 18.1962 34.6436 16.9793 34.2375 15.8098L28.4641 15.8161ZM14.0245 27.0464C14.2606 27.0464 14.4785 26.9484 14.6419 26.7781L15.8766 25.4791C16.0337 25.3146 16.2459 25.2234 16.4696 25.2234H16.5179C16.7541 25.2234 16.9777 25.3266 17.1291 25.4974L18.1698 26.6801C18.3696 26.9054 18.6541 27.0338 18.9506 27.0338H33.6201C34.1756 25.8728 34.5765 24.643 34.8122 23.3763H20.7299C20.4334 23.3763 20.1489 23.2479 19.9492 23.0221L18.9084 21.8515C18.8312 21.7654 18.7369 21.6966 18.6316 21.6495C18.5264 21.6024 18.4125 21.5781 18.2973 21.5781C18.1821 21.5781 18.0682 21.6024 17.9629 21.6495C17.8577 21.6966 17.7634 21.7654 17.6861 21.8515L16.79 22.8696C16.4997 23.2049 16.0764 23.3941 15.6342 23.3941H6.19973C6.43544 24.661 6.83628 25.891 7.39185 27.0521L14.0245 27.0464ZM24.4275 11.8588C24.6636 11.8588 24.8815 11.7614 25.0448 11.5905L26.2791 10.2921C26.4304 10.1275 26.6484 10.0358 26.872 10.0358H26.9209C27.1571 10.0358 27.3745 10.1396 27.5321 10.3167L28.5728 11.5056C28.7726 11.731 29.0566 11.8588 29.3535 11.8588H32.1435C29.4867 8.29825 25.2623 6 20.5057 6C15.7492 6 11.519 8.29825 8.86224 11.8588H24.428H24.4275ZM18.8299 30.6735H15.0174C14.7209 30.6735 14.4359 30.5456 14.2362 30.3203L13.1959 29.1371C13.1187 29.051 13.0244 28.9822 12.9191 28.9352C12.8138 28.8881 12.6999 28.8637 12.5848 28.8637C12.4696 28.8637 12.3557 28.8881 12.2504 28.9352C12.1452 28.9822 12.0509 29.051 11.9736 29.1371L11.0764 30.1552C10.7857 30.4906 10.3623 30.6798 9.92069 30.6798H9.85984C12.5177 33.5455 16.3 35.3439 20.5062 35.3439C24.7125 35.3439 28.4886 33.5455 31.1516 30.6803L18.8299 30.6735Z" fill="black"/>
</svg>
