<svg width="42" height="42" viewBox="0 0 42 42" fill="none" xmlns="http://www.w3.org/2000/svg">
<path d="M33.5999 0H8.40007C3.76084 0 0 3.76084 0 8.40007V33.5999C0 38.2392 3.76084 42 8.40007 42H33.5999C38.2392 42 42 38.2392 42 33.5999V8.40007C42 3.76084 38.2392 0 33.5999 0Z" fill="#2B2E35"/>
<mask id="mask0_4862_2888" style="mask-type:luminance" maskUnits="userSpaceOnUse" x="0" y="0" width="42" height="42">
<path d="M42 0H0V42H42V0Z" fill="white"/>
</mask>
<g mask="url(#mask0_4862_2888)">
<path d="M16.5868 11.991L20.9248 9.53369C20.9861 9.49883 21.0467 9.49957 21.1066 9.53579L25.8039 12.3086C25.8666 12.3462 25.9299 12.3462 25.994 12.3086L28.6499 10.7623C28.7348 10.7136 28.7355 10.6641 28.652 10.6139L21.1004 6.15488C21.0293 6.11309 20.9589 6.11309 20.8893 6.15488L13.3355 10.6181C13.3247 10.6244 13.3157 10.6334 13.3094 10.6442C13.3032 10.655 13.2998 10.6673 13.2998 10.6798C13.2998 10.6923 13.3032 10.7047 13.3094 10.7155C13.3157 10.7263 13.3247 10.7352 13.3355 10.7414L16.0186 12.3253C16.0388 12.3375 16.062 12.344 16.0859 12.3444C16.1097 12.3448 16.1333 12.3389 16.1543 12.3274C16.2435 12.2787 16.3208 12.2167 16.3863 12.1415C16.4294 12.0926 16.4963 12.0426 16.5868 11.991Z" stroke="#2B2E35" stroke-width="0.39801"/>
<path d="M22.1135 14.5829C22.675 14.3391 23.212 14.0152 23.7247 13.6112C23.7901 13.561 23.7874 13.5144 23.7163 13.4713L21.0479 11.8789C21.0019 11.8525 20.9567 11.8532 20.912 11.881L18.2751 13.4692C18.2095 13.5095 18.2068 13.5534 18.2667 13.6007C19.0148 14.1942 19.5935 14.5738 20.0032 14.7396C20.4169 14.9082 20.7233 15.0585 20.9225 15.191C20.9768 15.2285 21.0333 15.2299 21.0918 15.1952C21.2506 15.1003 21.4024 15.0022 21.5473 14.9005C21.7228 14.7752 21.9116 14.6692 22.1135 14.5829Z" stroke="#2B2E35" stroke-width="0.39801"/>
<path d="M11.1874 15.2774C11.1872 15.2652 11.1902 15.2533 11.196 15.2427C11.2019 15.2319 11.2104 15.2231 11.2209 15.2168L13.9666 13.6183C13.9771 13.6124 13.9859 13.6039 13.9921 13.5935C13.9982 13.5832 14.0016 13.5714 14.0019 13.5594C14.0021 13.5473 13.999 13.5355 13.9932 13.5249C13.9875 13.5144 13.979 13.5054 13.9687 13.4992L11.225 11.8735C11.2143 11.8671 11.202 11.8636 11.1895 11.8636C11.177 11.8636 11.1648 11.8671 11.154 11.8735L8.35193 13.5263C8.34151 13.5326 8.33293 13.5415 8.32705 13.5522C8.32118 13.5628 8.31824 13.5748 8.3185 13.587L8.32894 16.878C8.32868 16.8902 8.33163 16.9022 8.3375 16.9128C8.34338 16.9235 8.35196 16.9323 8.36238 16.9386L11.0809 18.5287C11.0915 18.5351 11.1035 18.5385 11.1158 18.5386C11.1282 18.5387 11.1404 18.5355 11.151 18.5294C11.1617 18.5232 11.1705 18.5141 11.1765 18.5034C11.1826 18.4927 11.1856 18.4805 11.1853 18.4681L11.1874 15.2774Z" stroke="#2B2E35" stroke-width="0.39801"/>
<path d="M30.8084 18.4657C30.8081 18.4783 30.8113 18.4906 30.8175 18.5017C30.8236 18.5126 30.8326 18.5217 30.8434 18.5281C30.8542 18.5344 30.8665 18.5379 30.8791 18.5379C30.8917 18.538 30.904 18.5346 30.9149 18.5283L33.6418 16.9194C33.6525 16.9132 33.6613 16.9044 33.6676 16.8938C33.6738 16.8832 33.6772 16.8711 33.6774 16.8588L33.6836 13.597C33.6835 13.5847 33.6801 13.5727 33.6738 13.562C33.6676 13.5514 33.6588 13.5426 33.6481 13.5364L30.8293 11.871C30.8184 11.8648 30.8063 11.8616 30.7938 11.8616C30.7813 11.8616 30.769 11.8648 30.7583 11.871L28.0355 13.4946C28.0248 13.501 28.0159 13.5102 28.0098 13.5211C28.0037 13.532 28.0007 13.5444 28.0009 13.5569C28.0011 13.5694 28.0045 13.5817 28.0111 13.5924C28.0175 13.6031 28.0267 13.6119 28.0376 13.6179L30.7792 15.2185C30.7901 15.2248 30.7992 15.234 30.8054 15.245C30.8117 15.256 30.8149 15.2685 30.8147 15.2812L30.8084 18.4657Z" stroke="#2B2E35" stroke-width="0.39801"/>
<path d="M21.0776 17.5795C21.051 17.5952 21.0207 17.6036 20.9898 17.6036C20.9588 17.6036 20.9286 17.5952 20.902 17.5795L16.1984 14.7837C16.1719 14.7678 16.1415 14.7594 16.1106 14.7594C16.0798 14.7594 16.0494 14.7678 16.0229 14.7837L13.3127 16.3947C13.2871 16.41 13.2659 16.4317 13.2512 16.4578C13.2366 16.4837 13.2289 16.5131 13.2291 16.543L13.2312 19.7066C13.231 19.7365 13.2387 19.7659 13.2533 19.7919C13.268 19.8179 13.2892 19.8397 13.3148 19.8549L18.0539 22.6362C18.0796 22.6514 18.1008 22.6732 18.1154 22.6992C18.1301 22.7252 18.1378 22.7546 18.1376 22.7845L18.1355 28.3594C18.1353 28.3893 18.1428 28.4187 18.1575 28.4448C18.1721 28.4707 18.1933 28.4925 18.219 28.5078L20.9208 30.0979C20.9474 30.1138 20.9777 30.1222 21.0086 30.1222C21.0395 30.1222 21.0698 30.1138 21.0964 30.0979L23.7897 28.512C23.8154 28.4967 23.8367 28.4749 23.8512 28.4489C23.8659 28.4229 23.8735 28.3935 23.8733 28.3636V22.7845C23.8731 22.7546 23.8808 22.7252 23.8953 22.6992C23.91 22.6732 23.9313 22.6514 23.9569 22.6362L28.6961 19.8528C28.7221 19.8378 28.7437 19.8162 28.7587 19.7902C28.7738 19.7641 28.7817 19.7346 28.7817 19.7045L28.7712 16.5305C28.7711 16.5009 28.7634 16.4719 28.7487 16.4463C28.7341 16.4207 28.7131 16.3993 28.6877 16.3843L25.9963 14.7858C25.9698 14.7699 25.9395 14.7615 25.9085 14.7615C25.8776 14.7615 25.8473 14.7699 25.8208 14.7858L21.0776 17.5795Z" stroke="#2B2E35" stroke-width="0.39801"/>
<path d="M25.9061 32.8588C25.9062 32.8761 25.9109 32.893 25.9197 32.9078C25.9285 32.9227 25.9411 32.935 25.9561 32.9435C25.9711 32.952 25.9881 32.9563 26.0054 32.9561C26.0226 32.9559 26.0395 32.9512 26.0545 32.9423L33.6332 28.4874C33.6481 28.4786 33.6603 28.4661 33.6687 28.4511C33.6771 28.4359 33.6815 28.419 33.6813 28.4017L33.6792 19.4669C33.679 19.4495 33.6743 19.4326 33.6656 19.4178C33.6568 19.4029 33.6443 19.3906 33.6292 19.3821C33.6141 19.3736 33.5971 19.3693 33.5799 19.3695C33.5626 19.3697 33.5457 19.3744 33.5309 19.3833L30.8646 20.9588C30.8498 20.9676 30.8375 20.9801 30.829 20.9951C30.8206 21.0102 30.8163 21.0271 30.8165 21.0445L30.8102 26.6946C30.8104 26.7118 30.8061 26.7289 30.7977 26.7439C30.7892 26.7589 30.777 26.7715 30.7622 26.7803L25.9479 29.6074C25.9331 29.6163 25.9208 29.6288 25.9124 29.6439C25.9039 29.6589 25.8996 29.6759 25.8998 29.6931L25.9061 32.8588Z" stroke="#2B2E35" stroke-width="0.39801"/>
<path d="M8.32459 28.4269C8.32439 28.4397 8.32758 28.4521 8.33382 28.4632C8.34007 28.4742 8.34914 28.4833 8.36011 28.4896L15.9974 32.9613C16.0081 32.9675 16.0203 32.9708 16.0327 32.9708C16.0451 32.9708 16.0573 32.9677 16.0681 32.9616C16.0788 32.9554 16.0878 32.9466 16.0941 32.936C16.1004 32.9253 16.1038 32.9131 16.104 32.9007V29.689C16.1038 29.6768 16.1004 29.6647 16.0942 29.6541C16.0881 29.6435 16.0791 29.6347 16.0685 29.6285L11.2249 26.7741C11.2143 26.7679 11.2053 26.7591 11.1991 26.7485C11.1928 26.7379 11.1895 26.7258 11.1894 26.7136L11.1831 21.0321C11.183 21.0197 11.1796 21.0076 11.1733 20.997C11.1671 20.9864 11.1582 20.9776 11.1476 20.9714L8.43534 19.3688C8.42442 19.3625 8.41213 19.3593 8.39952 19.3593C8.38695 19.3593 8.37463 19.3627 8.36379 19.369C8.35295 19.3754 8.34401 19.3846 8.33785 19.3956C8.3317 19.4065 8.32857 19.4189 8.32877 19.4315L8.32459 28.4269Z" stroke="#2B2E35" stroke-width="0.39801"/>
<path d="M16.1023 23.9353C16.1023 23.9227 16.099 23.9103 16.0927 23.8993C16.0865 23.8884 16.0776 23.8791 16.0667 23.8726L13.344 22.2449C13.3329 22.2383 13.3203 22.2346 13.3074 22.2345C13.2944 22.2343 13.2817 22.2376 13.2704 22.244C13.2592 22.2504 13.2497 22.2596 13.2432 22.2707C13.2367 22.282 13.2332 22.2947 13.2332 22.3076L13.2271 25.5192C13.2271 25.5318 13.2303 25.5443 13.2365 25.5552C13.2428 25.5663 13.2517 25.5754 13.2625 25.5819L15.9936 27.1929C16.0047 27.1996 16.0173 27.2032 16.0302 27.2033C16.0433 27.2035 16.056 27.2003 16.0672 27.1939C16.0784 27.1875 16.0879 27.1782 16.0944 27.1671C16.1009 27.156 16.1044 27.1433 16.1044 27.1302L16.1023 23.9353Z" stroke="#2B2E35" stroke-width="0.39801"/>
<path d="M28.7687 22.3005C28.7686 22.2881 28.7652 22.2759 28.7588 22.2652C28.7525 22.2546 28.7436 22.2458 28.7328 22.2396C28.7221 22.2335 28.7099 22.2302 28.6975 22.2303C28.6851 22.2303 28.6729 22.2336 28.6621 22.2398L25.9353 23.8634C25.9247 23.8696 25.9157 23.8784 25.9095 23.889C25.9034 23.8996 25.9 23.9117 25.8998 23.924L25.9061 27.1231C25.9062 27.1355 25.9097 27.1476 25.916 27.1583C25.9223 27.169 25.9312 27.1778 25.942 27.1839C25.9527 27.1901 25.965 27.1933 25.9774 27.1933C25.9898 27.1932 26.0018 27.1899 26.0127 27.1837L28.7353 25.5831C28.746 25.577 28.7548 25.5682 28.761 25.5575C28.7673 25.5469 28.7707 25.5348 28.7708 25.5225L28.7687 22.3005Z" stroke="#2B2E35" stroke-width="0.39801"/>
<path d="M18.1248 34.1686C18.125 34.1809 18.1283 34.193 18.1345 34.2036C18.1407 34.2142 18.1496 34.223 18.1604 34.2292L20.952 35.8967C20.9627 35.9029 20.975 35.9062 20.9875 35.9062C21 35.9062 21.0122 35.9029 21.023 35.8967L23.8376 34.225C23.8483 34.2189 23.8571 34.2101 23.8634 34.1994C23.8696 34.1888 23.873 34.1767 23.8731 34.1644L23.8752 30.9465C23.8751 30.9341 23.8716 30.922 23.8653 30.9113C23.859 30.9006 23.8501 30.8918 23.8393 30.8857C23.8286 30.8796 23.8164 30.8764 23.804 30.8765C23.7916 30.8765 23.7794 30.8797 23.7686 30.8859L21.0251 32.5199C21.0143 32.5262 21.0021 32.5295 20.9896 32.5295C20.9771 32.5295 20.9648 32.5262 20.954 32.5199L18.2334 30.888C18.2227 30.8818 18.2105 30.8786 18.1982 30.8785C18.1858 30.8785 18.1736 30.8817 18.1628 30.8878C18.1521 30.8939 18.143 30.9027 18.1367 30.9134C18.1304 30.9241 18.1271 30.9362 18.1269 30.9486L18.1248 34.1686Z" stroke="#2B2E35" stroke-width="0.39801"/>
<path d="M16.9974 13.2194C16.9406 13.2846 16.8736 13.3385 16.7963 13.3807C16.7781 13.3907 16.7576 13.3958 16.7369 13.3955C16.7162 13.3951 16.6961 13.3895 16.6785 13.3789L14.3514 12.0051C14.342 11.9997 14.3342 11.992 14.3287 11.9826C14.3233 11.9732 14.3204 11.9625 14.3204 11.9517C14.3204 11.9408 14.3233 11.9302 14.3287 11.9208C14.3342 11.9114 14.342 11.9037 14.3514 11.8982L20.9031 8.02706C20.9634 7.99082 21.0245 7.99082 21.0861 8.02706L27.6359 11.8946C27.7084 11.9381 27.7077 11.981 27.6341 12.0232L25.3305 13.3644C25.275 13.397 25.2201 13.397 25.1657 13.3644L21.0915 10.9594C21.0396 10.928 20.987 10.9274 20.9339 10.9576L17.1714 13.0889C17.0929 13.1337 17.0349 13.1771 16.9974 13.2194Z" fill="#F0B90B"/>
<path d="M21.4738 15.6123C21.3481 15.7005 21.2164 15.7856 21.0787 15.8679C21.028 15.898 20.979 15.8968 20.9319 15.8642C20.7592 15.7494 20.4933 15.619 20.1345 15.4727C19.7793 15.3289 19.2773 14.9997 18.6284 14.485C18.5765 14.4439 18.5789 14.4058 18.6357 14.3709L20.9228 12.9934C20.9615 12.9693 21.0008 12.9687 21.0407 12.9916L23.355 14.3727C23.4167 14.4101 23.419 14.4506 23.3623 14.4941C22.9176 14.8444 22.4519 15.1254 21.9649 15.3368C21.7898 15.4117 21.6261 15.5036 21.4738 15.6123Z" fill="#F0B90B"/>
<path d="M12.4883 15.9412L12.4865 18.7087C12.4868 18.7193 12.4841 18.7299 12.4789 18.7393C12.4737 18.7485 12.466 18.7563 12.4567 18.7617C12.4475 18.767 12.437 18.7699 12.4262 18.7698C12.4156 18.7697 12.4051 18.7667 12.3959 18.7612L10.0381 17.3819C10.029 17.3766 10.0216 17.3688 10.0165 17.3596C10.0114 17.3503 10.0088 17.34 10.0091 17.3294L10 14.475C9.99979 14.4644 10.0023 14.454 10.0074 14.4448C10.0125 14.4356 10.02 14.4279 10.029 14.4224L12.4594 12.9889C12.4687 12.9833 12.4793 12.9803 12.4902 12.9803C12.501 12.9803 12.5117 12.9833 12.5209 12.9889L14.9006 14.3989C14.9095 14.4043 14.9169 14.412 14.9219 14.4212C14.9269 14.4303 14.9296 14.4406 14.9294 14.451C14.9292 14.4615 14.9262 14.4717 14.9209 14.4807C14.9155 14.4897 14.9079 14.497 14.8988 14.5022L12.5174 15.8886C12.5083 15.894 12.5009 15.9018 12.4958 15.911C12.4907 15.9203 12.4882 15.9307 12.4883 15.9412Z" fill="#F0B90B"/>
<path d="M29.5062 18.7065L29.5117 15.9446C29.5119 15.9336 29.5091 15.9227 29.5037 15.9132C29.4983 15.9036 29.4904 15.8957 29.4809 15.8902L27.1031 14.5019C27.0936 14.4967 27.0856 14.489 27.08 14.4797C27.0744 14.4704 27.0714 14.4599 27.0712 14.4489C27.071 14.4381 27.0736 14.4274 27.0789 14.418C27.0842 14.4085 27.0919 14.4006 27.1012 14.395L29.4628 12.9868C29.4721 12.9814 29.4827 12.9785 29.4935 12.9785C29.5044 12.9785 29.515 12.9814 29.5243 12.9868L31.9692 14.4313C31.9785 14.4365 31.9861 14.4442 31.9915 14.4534C31.997 14.4627 31.9999 14.4731 32 14.4838L31.9946 17.3128C31.9944 17.3236 31.9915 17.334 31.9861 17.3432C31.9807 17.3524 31.973 17.3601 31.9637 17.3655L29.5986 18.7609C29.5892 18.7664 29.5785 18.7692 29.5676 18.7692C29.5567 18.7691 29.546 18.7662 29.5366 18.7606C29.5272 18.7551 29.5194 18.7473 29.5141 18.7377C29.5088 18.7282 29.506 18.7175 29.5062 18.7065Z" fill="#F0B90B"/>
<path d="M21.0664 17.9359L25.1804 15.5128C25.2033 15.4991 25.2296 15.4918 25.2564 15.4918C25.2833 15.4918 25.3096 15.4991 25.3325 15.5128L27.6669 16.8993C27.6889 16.9123 27.7071 16.9309 27.7198 16.9531C27.7325 16.9753 27.7393 17.0005 27.7393 17.0262L27.7485 19.779C27.7485 19.8052 27.7415 19.8308 27.7285 19.8533C27.7155 19.8759 27.6967 19.8947 27.6741 19.9077L23.5637 22.3218C23.5415 22.335 23.5231 22.3539 23.5103 22.3764C23.4977 22.399 23.491 22.4245 23.4912 22.4505V27.2894C23.4914 27.3153 23.4848 27.3408 23.4721 27.3633C23.4594 27.3859 23.441 27.4048 23.4187 27.4181L21.0827 28.7936C21.0596 28.8073 21.0333 28.8146 21.0065 28.8146C20.9798 28.8146 20.9534 28.8073 20.9304 28.7936L18.5871 27.4144C18.5648 27.4011 18.5464 27.3823 18.5337 27.3598C18.521 27.3372 18.5144 27.3117 18.5146 27.2857L18.5164 22.4505C18.5166 22.4245 18.5099 22.399 18.4972 22.3764C18.4845 22.3539 18.4661 22.335 18.4438 22.3218L14.3335 19.9095C14.3113 19.8963 14.2929 19.8774 14.2801 19.8549C14.2674 19.8323 14.2608 19.8068 14.261 19.7808L14.2592 17.037C14.259 17.011 14.2656 16.9855 14.2783 16.963C14.291 16.9405 14.3094 16.9216 14.3317 16.9083L16.6823 15.511C16.7053 15.4973 16.7316 15.49 16.7584 15.49C16.7852 15.49 16.8115 15.4973 16.8345 15.511L20.9141 17.9359C20.9371 17.9496 20.9634 17.9569 20.9902 17.9569C21.017 17.9569 21.0433 17.9496 21.0664 17.9359Z" fill="#F0B90B"/>
<path d="M25.2543 31.1901L25.2488 28.4444C25.2486 28.4294 25.2523 28.4147 25.2597 28.4017C25.267 28.3886 25.2777 28.3777 25.2905 28.3701L29.4661 25.918C29.479 25.9103 29.4896 25.8995 29.4969 25.8864C29.5042 25.8734 29.5079 25.8586 29.5078 25.8437L29.5132 20.9431C29.5131 20.9282 29.5168 20.9134 29.5242 20.9004C29.5314 20.8874 29.5421 20.8764 29.5549 20.8688L31.8675 19.5023C31.8803 19.4946 31.895 19.4905 31.91 19.4904C31.9249 19.4902 31.9397 19.494 31.9527 19.5014C31.9658 19.5087 31.9767 19.5193 31.9843 19.5323C31.9919 19.5452 31.996 19.5598 31.9962 19.5748L31.998 27.3244C31.9982 27.3393 31.9943 27.3541 31.9871 27.3671C31.9798 27.3801 31.9691 27.3911 31.9563 27.3987L25.3829 31.2626C25.37 31.2703 25.3553 31.2744 25.3404 31.2746C25.3254 31.2747 25.3106 31.2709 25.2976 31.2635C25.2846 31.2563 25.2736 31.2456 25.2661 31.2327C25.2584 31.2197 25.2543 31.2051 25.2543 31.1901Z" fill="#F0B90B"/>
<path d="M10.0054 27.3462L10.009 19.544C10.0088 19.5332 10.0115 19.5223 10.0169 19.5129C10.0222 19.5034 10.03 19.4955 10.0394 19.4899C10.0488 19.4844 10.0595 19.4814 10.0704 19.4814C10.0813 19.4814 10.092 19.4842 10.1014 19.4896L12.4539 20.8797C12.4631 20.8851 12.4708 20.8928 12.4762 20.902C12.4816 20.9112 12.4846 20.9216 12.4846 20.9323L12.4901 25.86C12.4902 25.8707 12.4931 25.8812 12.4986 25.8904C12.5039 25.8996 12.5117 25.9073 12.5209 25.9126L16.7219 28.3883C16.7311 28.3936 16.7389 28.4012 16.7443 28.4104C16.7496 28.4197 16.7525 28.4302 16.7527 28.4408V31.2264C16.7525 31.2371 16.7496 31.2476 16.7442 31.2569C16.7387 31.2662 16.7309 31.2738 16.7216 31.2791C16.7122 31.2845 16.7016 31.2872 16.6909 31.2872C16.6801 31.2871 16.6696 31.2843 16.6603 31.2789L10.0362 27.4005C10.0267 27.3951 10.0188 27.3871 10.0134 27.3775C10.008 27.3679 10.0052 27.3572 10.0054 27.3462Z" fill="#F0B90B"/>
<path d="M16.7511 23.4487L16.7529 26.2198C16.7529 26.231 16.7499 26.2421 16.7443 26.2517C16.7386 26.2614 16.7304 26.2694 16.7207 26.2749C16.7109 26.2805 16.6999 26.2833 16.6886 26.2831C16.6774 26.283 16.6665 26.2799 16.6568 26.2741L14.2881 24.8768C14.2787 24.8712 14.271 24.8633 14.2655 24.8537C14.2601 24.8442 14.2573 24.8334 14.2573 24.8225L14.2627 22.0369C14.2627 22.0257 14.2657 22.0147 14.2713 22.0049C14.277 21.9953 14.2852 21.9873 14.2949 21.9817C14.3047 21.9762 14.3157 21.9733 14.327 21.9735C14.3382 21.9736 14.3491 21.9768 14.3588 21.9825L16.7202 23.3943C16.7297 23.3999 16.7374 23.408 16.7428 23.4174C16.7483 23.427 16.7511 23.4377 16.7511 23.4487Z" fill="#F0B90B"/>
<path d="M27.7371 22.0325L27.7389 24.8272C27.7388 24.8378 27.7359 24.8483 27.7304 24.8575C27.7251 24.8667 27.7174 24.8744 27.7081 24.8797L25.3467 26.268C25.3373 26.2734 25.3268 26.2762 25.3161 26.2762C25.3053 26.2763 25.2947 26.2735 25.2854 26.2682C25.276 26.2628 25.2683 26.2552 25.2628 26.246C25.2573 26.2367 25.2543 26.2261 25.2542 26.2154L25.2488 23.4407C25.249 23.4301 25.2519 23.4196 25.2572 23.4103C25.2626 23.4011 25.2704 23.3935 25.2796 23.3882L27.6447 21.98C27.654 21.9746 27.6646 21.9718 27.6753 21.9717C27.6861 21.9717 27.6967 21.9744 27.7059 21.9798C27.7153 21.9851 27.7231 21.9927 27.7285 22.002C27.7341 22.0112 27.737 22.0218 27.7371 22.0325Z" fill="#F0B90B"/>
<path d="M18.5054 32.3261L18.5072 29.5334C18.5074 29.5226 18.5103 29.5121 18.5158 29.5029C18.5212 29.4936 18.529 29.4859 18.5383 29.4805C18.5477 29.4753 18.5583 29.4725 18.569 29.4725C18.5798 29.4725 18.5903 29.4754 18.5996 29.4808L20.9593 30.8962C20.9686 30.9016 20.9793 30.9045 20.9901 30.9045C21.001 30.9045 21.0115 30.9016 21.0209 30.8962L23.4005 29.479C23.4099 29.4736 23.4204 29.4707 23.4312 29.4707C23.4419 29.4707 23.4525 29.4734 23.4618 29.4787C23.4711 29.4841 23.4789 29.4917 23.4844 29.501C23.4898 29.5102 23.4928 29.5208 23.4929 29.5315L23.4911 32.3226C23.491 32.3332 23.4881 32.3437 23.4827 32.3529C23.4772 32.3621 23.4696 32.3697 23.4603 32.3751L21.0191 33.8249C21.0097 33.8304 20.9991 33.8332 20.9883 33.8332C20.9775 33.8332 20.9668 33.8304 20.9575 33.8249L18.5362 32.3788C18.527 32.3734 18.5192 32.3657 18.5138 32.3565C18.5085 32.3473 18.5056 32.3369 18.5054 32.3261Z" fill="#F0B90B"/>
</g>
</svg>
