<svg width="42" height="42" viewBox="0 0 42 42" fill="none" xmlns="http://www.w3.org/2000/svg">
<rect width="42" height="42" rx="8" fill="#F7931A"/>
<path d="M26.0191 20.9082L25.8117 20.8527C27.5834 21.2958 29.4062 20.2434 29.8828 18.4645C29.9989 18.0364 30.0291 17.5894 29.9719 17.1495C29.9147 16.7095 29.7709 16.2851 29.5491 15.9009C29.3273 15.5167 29.0317 15.1801 28.6793 14.9105C28.3268 14.641 27.9247 14.4437 27.4958 14.3301L25.9989 13.929L26.8885 10.6088L24.7542 10.0369L23.8646 13.357L22.1533 12.8986L23.0446 9.57276L20.907 9L20.0158 12.3259L16.0982 11.2762L15.4749 13.6031L18.202 14.3338L15.3505 24.9756L12.6234 24.2448L12 26.5717L15.9175 27.6214L14.9959 31.0612L17.1334 31.6339L18.0552 28.1941L19.7665 28.6525L18.8452 32.0911L20.9794 32.663L21.9007 29.2244L23.6646 29.6971C26.0952 30.3485 28.5948 28.9055 29.2461 26.4746C29.8975 24.0436 28.4496 21.5596 26.0191 20.9082ZM21.7192 15.1971L23.2605 15.6102L24.2831 15.8842C24.6979 15.9953 25.0369 16.2135 25.3035 16.5233C25.7713 17.0298 25.9713 17.7663 25.7804 18.4777C25.5899 19.1891 25.0484 19.7273 24.3901 19.9318C24.0045 20.0668 23.6022 20.0861 23.1869 19.975L22.1645 19.701L20.623 19.2878L21.7192 15.1971ZM22.6471 26.4384C22.5985 26.4412 22.5689 26.4333 22.5245 26.4214L20.5088 25.8812L18.9673 25.4681L20.0635 21.3774L21.6048 21.7904L23.6206 22.3307C23.665 22.3426 23.6947 22.3504 23.7355 22.3772C24.7904 22.7076 25.408 23.842 25.1179 24.9242C24.8279 26.0063 23.7259 26.6798 22.6471 26.4384Z" fill="white"/>
</svg>
