<svg width="48" height="48" viewBox="0 0 48 48" fill="none" xmlns="http://www.w3.org/2000/svg">
<g id="home_icon_telegram">
<rect id="image 285" width="48" height="48" rx="8" fill="#51A1E3"/>
<path id="Vector" d="M32.6779 14.3745C32.6779 14.3745 35.0997 13.4301 34.8971 15.7234C34.8304 16.6678 34.2251 19.9735 33.7538 23.5486L32.1393 34.1396C32.1393 34.1396 32.0047 35.6911 30.7934 35.9611C29.5829 36.2303 27.7664 35.0167 27.4298 34.7467C27.1605 34.5441 22.3842 31.5083 20.7024 30.0247C20.2311 29.6195 19.6925 28.8104 20.7697 27.866L27.8331 21.1199C28.6403 20.3108 29.4476 18.422 26.0839 20.7154L16.6648 27.1236C16.6648 27.1236 15.5883 27.7987 13.5704 27.1915L9.19687 25.8419C9.19687 25.8419 7.58235 24.8302 10.3408 23.8185C17.0688 20.648 25.344 17.4103 32.6766 14.3745H32.6779Z" fill="white"/>
</g>
</svg>
