<svg width="93" height="82" viewBox="0 0 93 82" fill="none" xmlns="http://www.w3.org/2000/svg">
<path d="M88.6794 40.6853C88.6794 18.1778 70.4948 0 48.0685 0C25.649 0 7.46436 18.1778 7.46436 40.6853C7.46436 63.1928 25.649 81.3707 48.0685 81.3707C70.4948 81.3707 88.6794 63.1928 88.6794 40.6853Z" fill="#162827"/>
<path d="M14.1113 23.2287V59.8279C14.1113 62.1551 15.8703 63.914 18.1975 63.914H75.9376C78.2648 63.914 80.0237 62.1551 80.0237 59.8279V23.2287C80.0237 20.9015 78.2648 19.1426 75.9376 19.1426H18.1975C16.0394 19.1426 14.1113 20.9015 14.1113 23.2287Z" fill="#ECF6EF" stroke="#8ECEA3" stroke-width="0.928571"/>
<path d="M56.3744 9.54004H28.4616C27.1086 9.54004 26.0059 10.5819 26.0059 11.9281V62.7408C26.0059 64.0262 27.1086 65.1289 28.4616 65.1289H66.9956C68.3419 65.1289 69.4514 64.0871 69.4514 62.7408L68.9575 23.2191L56.3744 9.54004Z" fill="url(#paint0_linear_2734_4456)"/>
<path d="M51.7772 17.0268C51.7772 16.5938 51.4119 16.2285 50.9789 16.2285H32.5102C32.0772 16.2285 31.7119 16.5938 31.7119 17.0268C31.7119 17.453 32.0772 17.8251 32.5102 17.8251H50.9789C51.4119 17.8251 51.7772 17.453 51.7772 17.0268Z" fill="#162827"/>
<path d="M40.3645 21.4448C40.3645 21.0118 39.9992 20.6465 39.5662 20.6465H32.5102C32.0772 20.6465 31.7119 21.0118 31.7119 21.4448C31.7119 21.871 32.0772 22.2431 32.5102 22.2431H39.6271C39.9992 22.2431 40.3645 21.871 40.3645 21.4448Z" fill="#162827"/>
<path d="M32.1675 32.2623C32.1675 32.6073 32.3975 32.9523 32.7425 32.9523H55.4597H57.1172H63.7605C64.1597 32.9523 64.3897 32.6614 64.3897 32.2623C64.3897 31.9173 64.1597 31.5723 63.8146 31.5723H57.1172H55.4597H32.7425C32.4516 31.5723 32.1675 31.8564 32.1675 32.2623Z" fill="#162827"/>
<path d="M81.151 42.6091V60.6313C81.151 62.9517 79.3041 64.873 76.9025 64.873H17.559C15.2318 64.873 13.3105 62.9517 13.3105 60.6313V41.0869" stroke="#1676EE" stroke-width="3" stroke-linejoin="bevel"/>
<path d="M76.1025 32.5176H57.3631C55.5163 32.5176 53.7573 33.1603 52.3975 34.2833L47.5064 38.2814C46.1466 39.4045 44.3877 40.0471 42.5408 40.0471H21.3998C19.235 40.0471 17.4761 41.8061 17.4761 43.9709L17.5573 44.5324L21.4743 65.193C21.8057 67.1143 23.4023 68.5621 25.4048 68.5621H70.6566C72.5779 68.5621 74.2556 67.1955 74.5803 65.2742L80.0262 37.0028C80.4254 34.838 78.9844 32.9167 76.8263 32.5176C76.5084 32.5176 76.1025 32.5176 76.1025 32.5176Z" fill="white"/>
<path d="M18.3535 74.0021H77.2979C79.8686 74.0021 81.9455 72.2431 82.3514 69.6792L89.4818 32.762C89.9158 30.2251 88.4497 27.9533 86.0966 27.1247C85.595 26.948 85.0412 26.9913 84.5095 26.9913V26.9913C84.5095 26.9913 84.5095 26.9913 84.5095 26.9913H60.1618C57.7602 26.9913 55.5142 27.7896 53.6809 29.3118L47.2676 34.5209C45.5086 35.9619 43.1814 36.8413 40.7798 36.8413H13.2323C10.4316 36.8413 8.18555 39.1618 8.18555 41.8881L8.26673 42.6052L13.3135 69.598C13.7126 72.1619 15.8775 74.0021 18.3535 74.0021Z" fill="#ECF6EF" stroke="#8ECEA3" stroke-width="0.928571"/>
<path d="M92.208 21.5061C92.208 19.9772 90.9632 18.7324 89.4343 18.7324C87.9054 18.7324 86.6606 19.9772 86.6606 21.5061C86.6606 23.035 87.9054 24.2798 89.4343 24.2798C90.9632 24.2798 92.208 23.035 92.208 21.5061Z" fill="#ECF6EF"/>
<path d="M86.5985 13.3874C86.5985 12.3388 85.7529 11.4932 84.7043 11.4932C83.6557 11.4932 82.8101 12.3388 82.8101 13.3874C82.8101 14.436 83.6557 15.2816 84.7043 15.2816C85.7529 15.2816 86.5985 14.436 86.5985 13.3874Z" fill="#ECF6EF"/>
<path d="M9.88221 19.611C9.88221 18.5624 9.03657 17.7168 7.98798 17.7168C6.93939 17.7168 6.09375 18.5624 6.09375 19.611C6.09375 20.6596 6.93939 21.5053 7.98798 21.5053C9.03657 21.5053 9.88221 20.6596 9.88221 19.611Z" fill="#ECF6EF"/>
<path d="M7.24372 59.6614C7.24372 57.7198 5.66745 56.1436 3.72586 56.1436C1.78428 56.1436 0.208008 57.7198 0.208008 59.6614C0.208008 61.603 1.78428 63.1793 3.72586 63.1793C5.66745 63.1793 7.24372 61.603 7.24372 59.6614Z" fill="#ECF6EF"/>
<path fill-rule="evenodd" clip-rule="evenodd" d="M88.6632 73.6757C89.6009 74.6246 89.6009 76.1405 88.6632 77.0838C87.7255 78.0382 86.2218 78.0382 85.2897 77.0838L75.6351 67.3424C65.4478 74.9221 51.4819 67.5333 51.4819 55.1587C51.4819 46.7368 58.2623 39.915 66.5742 39.915C78.5869 39.915 85.961 53.5585 78.9587 63.8782L88.6632 73.6757ZM73.4656 62.9299C67.1901 68.8589 56.2537 64.4178 56.2537 55.1873C56.2537 49.4436 60.8924 44.761 66.5742 44.761C75.8237 44.761 80.5678 56.2148 73.4656 62.9299Z" fill="#8ECEA3"/>
<defs>
<linearGradient id="paint0_linear_2734_4456" x1="58.8187" y1="12.1732" x2="28.2713" y2="57.2263" gradientUnits="userSpaceOnUse">
<stop stop-color="#BDE4CB"/>
<stop offset="1" stop-color="#ECF6EF"/>
</linearGradient>
</defs>
</svg>
