<svg width="33" height="34" viewBox="0 0 33 34" fill="none" xmlns="http://www.w3.org/2000/svg">
<g id="log_icon_pha">
<path id="Vector" d="M11.006 0.664551H22.4517C29.3408 0.664551 32.7853 4.18103 32.7853 11.214V22.8988C32.7853 29.9318 29.3408 33.4483 22.4517 33.4483H11.006C4.1169 33.4483 0.672363 29.9318 0.672363 22.8988V11.214C0.672363 4.18103 4.1169 0.664551 11.006 0.664551Z" fill="#543EC5"/>
<path id="Vector_2" d="M28.2249 17.2185H25.3478C25.3478 11.233 20.5784 6.3811 14.6943 6.3811C8.88339 6.3811 4.15878 11.1143 4.04339 16.9974C3.92369 23.0782 9.53182 28.3591 15.5107 28.3591H16.2629C21.5334 28.3591 28.5986 24.1613 29.7022 19.0475C29.9058 18.1046 29.1738 17.2189 28.2249 17.2189V17.2185ZM10.4192 17.4853C10.4192 18.2853 9.77552 18.9402 8.98845 18.9402C8.2018 18.9402 7.5581 18.2853 7.5581 17.4853V15.131C7.5581 14.331 8.2018 13.676 8.98845 13.676C9.77552 13.676 10.4192 14.331 10.4192 15.131V17.4853ZM15.3858 17.4853C15.3858 18.2853 14.7425 18.9402 13.9555 18.9402C13.1688 18.9402 12.5251 18.2853 12.5251 17.4853V15.131C12.5251 14.331 13.1688 13.676 13.9555 13.676C14.7425 13.676 15.3858 14.331 15.3858 15.131V17.4853Z" fill="white"/>
</g>
</svg>
