<svg width="243" height="23" viewBox="0 0 243 23" fill="none" xmlns="http://www.w3.org/2000/svg">
<path d="M118.188 18.9587V22.5135H103.969L103.969 0H118.188L118.188 3.55476H107.129L107.129 9.87433H118.188L118.188 13.0341H107.129L107.129 18.9587H118.188Z" fill="#C9FDD9"/>
<path d="M203.503 18.9587V22.5135H189.284L189.284 0H203.503V3.54138H192.444L192.443 9.7987H203.503L203.503 13.0341H192.443V18.9587H203.503Z" fill="#C9FDD9"/>
<path d="M137.937 22.5135H134.777L130.025 13.0341H126.483V22.5135H123.323L123.327 2.28e-05H136.752L137.542 0.789946V13.0306L133.223 13.0341L137.937 22.5135ZM134.382 9.87433V4.3447L133.592 3.55476H126.483L126.483 9.87433H134.382Z" fill="#C9FDD9"/>
<path d="M60.1272 22.5135H56.9674L52.2155 13.0341H48.673V22.5135H45.5132L45.5171 2.28e-05H58.9423L59.7322 0.789946V13.0306L55.413 13.0341L60.1272 22.5135ZM56.5724 9.08438V4.3447L55.7825 3.55476H48.673L48.673 9.87433H55.7825L56.5724 9.08438Z" fill="#C9FDD9"/>
<path d="M34.6518 22.5135H31.492L31.4911 3.55476H23L26.5547 0H41.1688V3.55476H34.6518L34.6518 22.5135Z" fill="#C9FDD9"/>
<path d="M239.84 9.87433V0H243V19.3537L239.84 22.5135V13.0341H231.151V22.5135H227.991V0H231.151V9.87433H239.84Z" fill="#C9FDD9"/>
<path d="M212.587 3.55476L211.797 4.3447V18.1688L212.587 18.9587H222.857V22.5135H209.428L208.638 21.7908V0.726361L209.428 0H222.857V3.55476H212.587Z" fill="#C9FDD9"/>
<path d="M161.636 18.9585H164.796L164.796 22.5133H161.636L161.636 18.9585Z" fill="#C9FDD9"/>
<path d="M143.072 18.9587H154.131V13.0341H143.072V0.789946L143.862 0H157.291V3.15978L157.291 3.55476H146.232V9.87433H157.291V21.7235L156.501 22.5135H143.072V18.9587Z" fill="#C9FDD9"/>
<path d="M87.7755 18.9587H94.0951L96.0699 16.9838V5.52962L94.0951 3.55476H87.7755V18.9587ZM84.6157 22.5135V0H95.28L98.8348 3.55476V18.9587L95.28 22.5135H84.6157Z" fill="#C9FDD9"/>
<path d="M68.422 3.55476V9.87433H76.3215V3.55476H68.422ZM79.4812 22.5098L76.3215 22.5097V13.0341H68.422V22.5097H65.2622V0.72599L66.0522 0H78.6913L79.4812 0.72599V22.5098Z" fill="#C9FDD9"/>
<path d="M178.422 22.5135H175.263L175.262 3.55476H168.745L168.745 0H184.939V3.55476H178.422L178.422 22.5135Z" fill="#C9FDD9"/>
<path d="M0 1.27935V21.7205L1.27853 23H6.53471V18.4228H2.84118V17.6978V17.314V17.0866V16.6601V5.7003V4.60575H6.53471L6.54013 3.03917V9.71729e-05H1.27853L0 1.27935ZM14.2059 1.27935V21.7205L12.9274 23H7.67118V18.4228H11.3647V16.6601V6.08411V4.60575H7.67118L7.68001 9.71729e-05L12.9274 0L14.2059 1.27935Z" fill="#C9FDD9"/>
</svg>
