<svg width="43" height="42" viewBox="0 0 43 42" fill="none" xmlns="http://www.w3.org/2000/svg">
<g id="mp_icon_aptos">
<rect id="image 284" width="42" height="42" rx="8" fill="white"/>
<g id="ETH 1" clip-path="url(#clip0_2673_6419)">
<path id="Vector" d="M27.3731 17.0284H25.2742C25.0317 17.0284 24.799 16.9234 24.6361 16.7391L23.784 15.7714C23.7216 15.6997 23.6448 15.6421 23.5586 15.6025C23.4724 15.5629 23.3789 15.5422 23.2842 15.5417C23.091 15.5417 22.9128 15.6266 22.7843 15.7714L22.0518 16.6041C21.814 16.8733 21.4677 17.0327 21.1116 17.0327H9.62321C9.29019 17.9875 9.08072 18.9815 9 19.9903H19.8448C20.0375 19.9903 20.2157 19.9106 20.3493 19.7709L21.3592 18.7089C21.4208 18.6427 21.4952 18.59 21.5778 18.554C21.6604 18.518 21.7495 18.4993 21.8395 18.4993H21.8791C22.0718 18.4993 22.25 18.5841 22.3789 18.7286L23.2301 19.6959C23.3935 19.8801 23.6258 19.9851 23.8687 19.9851H32.7187C32.6368 18.9751 32.4272 17.9798 32.0951 17.0233L27.3731 17.0284ZM15.5631 26.2136C15.7562 26.2136 15.9345 26.1334 16.0681 25.9941L17.078 24.9317C17.2064 24.7971 17.38 24.7226 17.5629 24.7226H17.6025C17.7956 24.7226 17.9785 24.807 18.1023 24.9467L18.9536 25.914C19.1169 26.0983 19.3496 26.2033 19.5921 26.2033H31.5902C32.0445 25.2538 32.3724 24.2479 32.5652 23.2119H21.0474C20.8049 23.2119 20.5722 23.1069 20.4089 22.9221L19.5576 21.9647C19.4945 21.8943 19.4173 21.838 19.3312 21.7995C19.2452 21.761 19.152 21.7411 19.0578 21.7411C18.9636 21.7411 18.8704 21.761 18.7843 21.7995C18.6982 21.838 18.6211 21.8943 18.5579 21.9647L17.825 22.7974C17.5876 23.0717 17.2413 23.2264 16.8797 23.2264H9.16335C9.35614 24.2626 9.68398 25.2686 10.1384 26.2183L15.5631 26.2136ZM24.0716 13.7919C24.2647 13.7919 24.443 13.7121 24.5765 13.5724L25.586 12.5104C25.7098 12.3759 25.8881 12.3009 26.071 12.3009H26.111C26.3041 12.3009 26.4819 12.3857 26.6108 12.5306L27.462 13.503C27.6254 13.6873 27.8577 13.7919 28.1006 13.7919H30.3824C28.2095 10.8797 24.7544 9 20.8641 9C16.9737 9 13.5139 10.8797 11.341 13.7919H24.072H24.0716ZM19.4934 29.1801H16.3752C16.1327 29.1801 15.8996 29.0756 15.7363 28.8913L14.8854 27.9236C14.8223 27.8532 14.7451 27.7969 14.6591 27.7584C14.573 27.7199 14.4798 27.7 14.3856 27.7C14.2914 27.7 14.1982 27.7199 14.1121 27.7584C14.026 27.7969 13.9489 27.8532 13.8857 27.9236L13.1519 28.7563C12.9141 29.0306 12.5679 29.1853 12.2067 29.1853H12.1569C14.3307 31.5291 17.4242 33 20.8645 33C24.3047 33 27.3931 31.5291 29.5712 29.1857L19.4934 29.1801Z" fill="black"/>
</g>
</g>
<defs>
<clipPath id="clip0_2673_6419">
<rect width="36" height="36" fill="white" transform="translate(7 3)"/>
</clipPath>
</defs>
</svg>
