<svg width="151" height="106" viewBox="0 0 151 106" fill="none" xmlns="http://www.w3.org/2000/svg">
<g id="mp_icon_keys">
<path id="Vector" d="M113.725 45.0709C113.725 23.5374 96.2603 6.14197 74.8723 6.14197C53.4154 6.14197 36.02 23.5374 36.02 45.0709C36.02 66.6044 53.4154 84 74.8723 84C96.3292 84 113.725 66.6044 113.725 45.0709Z" fill="#162827"/>
<path id="Vector_2" d="M114.339 16.4097C114.339 14.6778 112.929 13.2678 111.197 13.2678C109.458 13.2678 108.055 14.6778 108.055 16.4097C108.055 18.1416 109.458 19.5516 111.197 19.5516C112.929 19.5516 114.339 18.1416 114.339 16.4097Z" fill="#ECF6EF"/>
<path id="Vector_3" d="M117.941 5.14569C117.941 3.9579 116.975 3 115.795 3C114.607 3 113.649 3.9579 113.649 5.14569C113.649 6.33348 114.607 7.29137 115.795 7.29137C116.975 7.29137 117.941 6.33348 117.941 5.14569Z" fill="#ECF6EF"/>
<path id="Vector_4" d="M40.2347 17.3293C40.2347 16.1415 39.2768 15.1836 38.089 15.1836C36.9013 15.1836 35.9434 16.1415 35.9434 17.3293C35.9434 18.5171 36.9013 19.475 38.089 19.475C39.2768 19.475 40.2347 18.5171 40.2347 17.3293Z" fill="#ECF6EF"/>
<path id="Vector_5" d="M28.9697 56.8714C28.9697 54.6721 27.1842 52.8865 24.9848 52.8865C22.7855 52.8865 21 54.6721 21 56.8714C21 59.0707 22.7855 60.8562 24.9848 60.8562C27.1842 60.8562 28.9697 59.0707 28.9697 56.8714Z" fill="#ECF6EF"/>
<g id="Group" filter="url(#filter0_d_1474_1494)">
<path id="Vector_6" d="M72.4601 48.9666L55.1797 24.0613C54.1298 22.5517 52.0761 22.1991 50.5741 23.2337L24.5653 41.3111C23.0557 42.3686 22.7032 44.4071 23.7377 45.9243L41.0028 70.8219C42.0527 72.3393 44.1064 72.6918 45.6084 71.6496L71.6172 53.5798C73.1192 52.553 73.4947 50.484 72.4601 48.9666Z" fill="#ECF6EF" stroke="#8ECEA3" stroke-width="0.928571"/>
</g>
<path id="Vector_7" d="M67.9482 48.8793L53.6717 28.2807C53.2273 27.637 52.346 27.4684 51.7023 27.9205L28.8354 43.8139C28.1917 44.2661 28.0231 45.1473 28.4752 45.791L42.7517 66.3896C43.1962 67.0257 44.0851 67.1943 44.7288 66.7422L67.588 50.8564C68.2317 50.4043 68.4003 49.5153 67.9482 48.8793Z" fill="url(#paint0_linear_1474_1494)"/>
<path id="Vector_8" d="M43.7436 48.8555L42.8623 56.4803L51.2152 50.687L43.7436 48.8555Z" fill="#8ECEA3"/>
<path id="Vector_9" d="M47.3764 43.269L46.0967 54.2427L58.1125 45.8822L47.3764 43.269Z" fill="#8ECEA3"/>
<path id="Vector_10" d="M42.3578 46.2581C42.3578 45.2006 41.4995 44.3423 40.4343 44.3423C39.3768 44.3423 38.5186 45.2006 38.5186 46.2581C38.5186 47.3233 39.3768 48.1815 40.4343 48.1815C41.4995 48.1815 42.3578 47.3233 42.3578 46.2581Z" fill="#8ECEA3"/>
<g id="Group_2" filter="url(#filter1_d_1474_1494)">
<path id="Vector_11" d="M107.783 68.571L127.363 45.4282C128.52 44.0412 128.351 41.9491 126.956 40.7613L102.802 20.2777C101.407 19.1129 99.3231 19.2815 98.1353 20.6762L78.5562 43.8113C77.3914 45.206 77.56 47.2904 78.947 48.4782L103.109 68.9618C104.503 70.1266 106.588 69.958 107.783 68.571Z" fill="#ECF6EF" stroke="#8ECEA3" stroke-width="0.928571"/>
</g>
<path id="Vector_12" d="M106.706 64.207L122.883 45.0721C123.389 44.4743 123.312 43.5854 122.714 43.0796L101.457 25.0788C100.859 24.5731 99.9776 24.642 99.4642 25.2474L83.2949 44.3747C82.7814 44.9801 82.8581 45.869 83.4635 46.3748L104.713 64.3756C105.319 64.8813 106.2 64.8047 106.706 64.207Z" fill="url(#paint1_linear_1474_1494)"/>
<path id="Vector_13" d="M100.484 40.7783L92.8823 41.8895L100.63 48.4645L100.484 40.7783Z" fill="#8ECEA3"/>
<path id="Vector_14" d="M106.821 42.8555L95.8936 44.4341L107.066 53.9058L106.821 42.8555Z" fill="#8ECEA3"/>
<path id="Vector_15" d="M104.055 36.9244C104.055 35.8593 103.197 35.001 102.139 35.001C101.082 35.001 100.224 35.8593 100.224 36.9244C100.224 37.9819 101.082 38.8402 102.139 38.8402C103.197 38.8402 104.055 37.9819 104.055 36.9244Z" fill="#8ECEA3"/>
<g id="Group_3" filter="url(#filter2_d_1474_1494)">
<path id="Vector_16" d="M94.7887 44.0927L89.026 14.3289C88.6735 12.5511 86.9416 11.3709 85.1408 11.7158L54.0361 17.7007C52.2506 18.0532 51.0781 19.7851 51.423 21.5859L57.178 51.3497C57.5382 53.1275 59.2701 54.3 61.0709 53.9628L92.1755 47.9626C93.9534 47.6101 95.1335 45.8782 94.7887 44.0927Z" fill="#ECF6EF" stroke="#8ECEA3" stroke-width="0.928571"/>
</g>
<path id="Vector_17" d="M90.7165 42.1901L85.9424 17.5914C85.7891 16.825 85.0534 16.3269 84.2794 16.4725L56.9452 21.7525C56.1635 21.9057 55.6731 22.6414 55.8263 23.4154L60.5928 48.0065C60.7461 48.7805 61.4741 49.2786 62.2557 49.1253L89.5977 43.8454C90.364 43.6998 90.8698 42.9641 90.7165 42.1901Z" fill="url(#paint2_linear_1474_1494)"/>
<path id="Vector_18" d="M68.5589 32.3569L64.666 38.9702L74.6435 37.0545L68.5589 32.3569Z" fill="#8ECEA3"/>
<path id="Vector_19" d="M74.1493 28.7168L68.5322 38.2191L82.9161 35.4527L74.1493 28.7168Z" fill="#8ECEA3"/>
<path id="Vector_20" d="M67.7914 27.1512C66.9714 26.4922 65.7607 26.6224 65.094 27.4424C64.4349 28.27 64.5652 29.4808 65.3928 30.1398C66.2128 30.8065 67.4236 30.6763 68.0903 29.8563C68.7493 29.0287 68.619 27.8179 67.7914 27.1512Z" fill="#8ECEA3"/>
<path id="Subtract" fill-rule="evenodd" clip-rule="evenodd" d="M78.711 45.4014C82.1824 46.1371 85.2019 47.8766 87.7614 50.2522C92.0527 54.5513 93.8842 60.7661 92.6045 66.6131C92.2367 68.1687 91.6849 69.8086 91.0489 71.1803C89.3093 74.5598 86.5736 77.2113 83.1941 78.9508C79.7149 80.6904 75.6074 81.4184 71.4923 80.5065C61.8061 78.4833 55.5912 68.9887 57.599 59.3024C59.6067 49.6085 69.0248 43.3094 78.711 45.4014ZM77.5606 63.5608C79.5731 62.5833 80.4931 60.1568 79.7341 57.9718C79.0326 56.0513 77.1926 54.8438 75.2031 55.0163C73.2481 55.2348 71.6381 56.7643 71.2931 58.7538C70.9389 60.7766 71.936 62.7539 73.7316 63.6137C73.7541 63.6245 73.776 63.6369 73.797 63.6505C73.8218 63.6666 73.8484 63.6827 73.8806 63.6988C73.9112 63.7141 73.9402 63.7325 73.9665 63.7543C74.0668 63.8374 74.1566 63.9254 74.1566 63.9863V66.6143C74.1566 66.8905 73.9328 67.1143 73.6566 67.1143H71.7241C71.448 67.1143 71.2241 67.3382 71.2241 67.6143V69.6043C71.2241 69.8805 71.448 70.1043 71.7241 70.1043H73.6566C73.9328 70.1043 74.1566 70.3282 74.1566 70.6043V71.0648C74.1566 71.341 74.3805 71.5648 74.6566 71.5648H76.5546C76.8308 71.5648 77.0546 71.341 77.0546 71.0648V64.3428C77.0201 64.0208 77.1926 63.7333 77.5031 63.5953L77.5606 63.5608ZM74.2601 60.1108C74.0416 59.5473 74.1566 58.9033 74.6051 58.4778C75.0191 58.0408 75.6516 57.9028 76.1691 58.1558L76.2036 58.1673C76.7441 58.4203 77.0776 58.9378 77.0776 59.5703C77.0431 60.3868 76.3876 61.0308 75.5826 61.0308C75.0306 61.0308 74.4671 60.6858 74.2601 60.1108Z" fill="url(#paint3_linear_1474_1494)"/>
</g>
<defs>
<filter id="filter0_d_1474_1494" x="0.682129" y="11.1782" width="94.8262" height="94.5322" filterUnits="userSpaceOnUse" color-interpolation-filters="sRGB">
<feFlood flood-opacity="0" result="BackgroundImageFix"/>
<feColorMatrix in="SourceAlpha" type="matrix" values="0 0 0 0 0 0 0 0 0 0 0 0 0 0 0 0 0 0 127 0" result="hardAlpha"/>
<feOffset dy="11"/>
<feGaussianBlur stdDeviation="11"/>
<feComposite in2="hardAlpha" operator="out"/>
<feColorMatrix type="matrix" values="0 0 0 0 0.396078 0 0 0 0 0.478431 0 0 0 0 0.576471 0 0 0 0.27 0"/>
<feBlend mode="normal" in2="BackgroundImageFix" result="effect1_dropShadow_1474_1494"/>
<feBlend mode="normal" in="SourceGraphic" in2="effect1_dropShadow_1474_1494" result="shape"/>
</filter>
<filter id="filter1_d_1474_1494" x="55.3188" y="8.04108" width="95.2739" height="95.158" filterUnits="userSpaceOnUse" color-interpolation-filters="sRGB">
<feFlood flood-opacity="0" result="BackgroundImageFix"/>
<feColorMatrix in="SourceAlpha" type="matrix" values="0 0 0 0 0 0 0 0 0 0 0 0 0 0 0 0 0 0 127 0" result="hardAlpha"/>
<feOffset dy="11"/>
<feGaussianBlur stdDeviation="11"/>
<feComposite in2="hardAlpha" operator="out"/>
<feColorMatrix type="matrix" values="0 0 0 0 0.396078 0 0 0 0 0.478431 0 0 0 0 0.576471 0 0 0 0.27 0"/>
<feBlend mode="normal" in2="BackgroundImageFix" result="effect1_dropShadow_1474_1494"/>
<feBlend mode="normal" in="SourceGraphic" in2="effect1_dropShadow_1474_1494" result="shape"/>
</filter>
<filter id="filter2_d_1474_1494" x="28.8984" y="0.191528" width="88.4146" height="87.2935" filterUnits="userSpaceOnUse" color-interpolation-filters="sRGB">
<feFlood flood-opacity="0" result="BackgroundImageFix"/>
<feColorMatrix in="SourceAlpha" type="matrix" values="0 0 0 0 0 0 0 0 0 0 0 0 0 0 0 0 0 0 127 0" result="hardAlpha"/>
<feOffset dy="11"/>
<feGaussianBlur stdDeviation="11"/>
<feComposite in2="hardAlpha" operator="out"/>
<feColorMatrix type="matrix" values="0 0 0 0 0.396078 0 0 0 0 0.478431 0 0 0 0 0.576471 0 0 0 0.27 0"/>
<feBlend mode="normal" in2="BackgroundImageFix" result="effect1_dropShadow_1474_1494"/>
<feBlend mode="normal" in="SourceGraphic" in2="effect1_dropShadow_1474_1494" result="shape"/>
</filter>
<linearGradient id="paint0_linear_1474_1494" x1="58.4177" y1="29.5291" x2="39.3445" y2="66.1176" gradientUnits="userSpaceOnUse">
<stop stop-color="#BDE4CB"/>
<stop offset="1" stop-color="#ECF6EF"/>
</linearGradient>
<linearGradient id="paint1_linear_1474_1494" x1="113.364" y1="26.6349" x2="93.8809" y2="63.6715" gradientUnits="userSpaceOnUse">
<stop stop-color="#BDE4CB"/>
<stop offset="1" stop-color="#ECF6EF"/>
</linearGradient>
<linearGradient id="paint2_linear_1474_1494" x1="82.1915" y1="17.9965" x2="66.79" y2="49.0511" gradientUnits="userSpaceOnUse">
<stop stop-color="#BDE4CB"/>
<stop offset="1" stop-color="#ECF6EF"/>
</linearGradient>
<linearGradient id="paint3_linear_1474_1494" x1="84.2478" y1="46.7006" x2="66.6423" y2="79.8141" gradientUnits="userSpaceOnUse">
<stop stop-color="#BDE4CB"/>
<stop offset="1" stop-color="#ECF6EF"/>
</linearGradient>
</defs>
</svg>
