<svg width="26" height="23" viewBox="0 0 26 23" fill="none" xmlns="http://www.w3.org/2000/svg">
<path d="M26.0005 10.3177V12.623C26.0005 13.2385 25.4757 13.7421 24.8077 13.7645H22.47C21.1818 13.7645 20.001 12.8804 19.8937 11.6718C19.8221 10.9668 20.1084 10.3065 20.6093 9.8477C21.0506 9.42245 21.6589 9.17627 22.3269 9.17627H24.8077C25.4757 9.19865 26.0005 9.70222 26.0005 10.3177Z" fill="#C9FDD9"/>
<path d="M25.3113 16.2612H23.3516C20.7479 16.2612 18.5552 14.3315 18.336 11.8754C18.2126 10.472 18.7334 9.06851 19.7749 8.0699C20.652 7.17924 21.8716 6.67993 23.1872 6.67993H25.3113C25.7087 6.67993 26.0376 6.35606 25.9965 5.96471C25.695 2.68547 23.4887 0.445329 20.2134 0.067474C19.8845 0.0134947 19.5419 0 19.1856 0H6.85201C6.4683 0 6.09829 0.0269895 5.74198 0.0809688C2.24746 0.512803 0 3.07682 0 6.74741V16.1938C0 19.9183 3.0697 22.9412 6.85201 22.9412H19.1856C23.0227 22.9412 25.6676 20.5796 25.9965 16.9765C26.0376 16.5851 25.7087 16.2612 25.3113 16.2612ZM15.0744 8.43426H6.85201C6.29014 8.43426 5.82421 7.97543 5.82421 7.42215C5.82421 6.86886 6.29014 6.41003 6.85201 6.41003H15.0744C15.6363 6.41003 16.1022 6.86886 16.1022 7.42215C16.1022 7.97543 15.6363 8.43426 15.0744 8.43426Z" fill="#C9FDD9"/>
</svg>
