<svg width="14" height="15" viewBox="0 0 14 15" fill="none" xmlns="http://www.w3.org/2000/svg">
<path d="M7 0.639221C3.134 0.639221 0 3.77322 0 7.63922C0 11.5052 3.134 14.6392 7 14.6392C10.866 14.6392 14 11.5052 14 7.63922C14 3.77322 10.866 0.639221 7 0.639221ZM7.75 11.3892C7.75 11.8017 7.4125 12.1392 7 12.1392C6.5875 12.1392 6.25 11.8017 6.25 11.3892C6.25 10.9767 6.5875 10.6392 7 10.6392C7.4125 10.6392 7.75 10.9767 7.75 11.3892ZM7.84375 8.63922C7.67188 8.8111 7.5 9.01422 7.5 9.63922C7.5 9.91536 7.27614 10.1392 7 10.1392C6.72386 10.1392 6.5 9.91536 6.5 9.63922C6.5 8.9986 6.62095 8.53342 7 8.13922C7.39063 7.73297 8.5 7.04547 8.5 6.13922C8.5 5.13922 7.59375 4.63922 7 4.63922C6.375 4.63922 5.5 5.01422 5.5 6.13922C5.5 6.41536 5.27614 6.63922 5 6.63922C4.72386 6.63922 4.5 6.41536 4.5 6.13922C4.5 6.13399 4.50023 6.1288 4.50039 6.1236H4.5C4.5 4.4361 5.78125 3.63922 7 3.63922C8.25 3.63922 9.5 4.48297 9.5 6.13922C9.5 7.45172 8.28153 8.20144 7.84375 8.63922Z" fill="#BBFFD6" fill-opacity="0.6"/>
</svg>
