<svg width="30" height="36" viewBox="0 0 30 36" fill="none" xmlns="http://www.w3.org/2000/svg">
<path fill-rule="evenodd" clip-rule="evenodd" d="M5.65039 19.2265V34.0481C5.65039 35.3636 7.0605 36.1881 8.19385 35.5354L14.8788 31.6861L21.8234 35.5825C22.9566 36.2181 24.3504 35.3923 24.3504 34.0856V19.2265C24.3504 18.2804 23.5893 17.5134 22.6504 17.5134H7.35039C6.41152 17.5134 5.65039 18.2804 5.65039 19.2265Z" fill="url(#paint0_linear_431_2508)"/>
<path fill-rule="evenodd" clip-rule="evenodd" d="M8.01367 20.2973V31.6697C8.01367 32.3274 8.71875 32.7397 9.2854 32.4134L14.9097 29.1748L20.7239 32.4368C21.2904 32.7547 21.9873 32.3419 21.9873 31.6884V20.2973C21.9873 19.3512 21.2262 18.5842 20.2873 18.5842H9.71367C8.7748 18.5842 8.01367 19.3512 8.01367 20.2973Z" fill="url(#paint1_linear_431_2508)"/>
<path d="M0 0H30V16.2812C30 17.3459 29.4357 18.3308 28.5172 18.8693L16.9678 25.6396C16.0574 26.1733 14.9335 26.1893 14.0082 25.6819L1.5575 18.8541C0.597037 18.3274 0 17.3191 0 16.2237V0Z" fill="url(#paint2_linear_431_2508)"/>
<g filter="url(#filter0_d_431_2508)">
<path d="M4 3H26V16.5849L15.3667 23L4 16.5849V3Z" fill="url(#paint3_linear_431_2508)"/>
</g>
<path d="M15.8672 17H14.3203V9.73438L12.7969 10.2852L12.3105 9.05469L14.6309 8.21094H15.8672V17Z" fill="#FF4D00"/>
<defs>
<filter id="filter0_d_431_2508" x="0" y="1" width="30" height="28" filterUnits="userSpaceOnUse" color-interpolation-filters="sRGB">
<feFlood flood-opacity="0" result="BackgroundImageFix"/>
<feColorMatrix in="SourceAlpha" type="matrix" values="0 0 0 0 0 0 0 0 0 0 0 0 0 0 0 0 0 0 127 0" result="hardAlpha"/>
<feOffset dy="2"/>
<feGaussianBlur stdDeviation="2"/>
<feComposite in2="hardAlpha" operator="out"/>
<feColorMatrix type="matrix" values="0 0 0 0 1 0 0 0 0 0.427451 0 0 0 0 0.137255 0 0 0 1 0"/>
<feBlend mode="normal" in2="BackgroundImageFix" result="effect1_dropShadow_431_2508"/>
<feBlend mode="normal" in="SourceGraphic" in2="effect1_dropShadow_431_2508" result="shape"/>
</filter>
<linearGradient id="paint0_linear_431_2508" x1="940.65" y1="22.9677" x2="958.535" y2="1846.3" gradientUnits="userSpaceOnUse">
<stop stop-color="#FF5800"/>
<stop offset="1" stop-color="#FF4D00"/>
</linearGradient>
<linearGradient id="paint1_linear_431_2508" x1="706.694" y1="41.8536" x2="720.645" y2="1414.78" gradientUnits="userSpaceOnUse">
<stop stop-color="#FFDBC7"/>
<stop offset="1" stop-color="#FF9159"/>
</linearGradient>
<linearGradient id="paint2_linear_431_2508" x1="1500" y1="1.41756e-06" x2="1523.41" y2="2650.06" gradientUnits="userSpaceOnUse">
<stop stop-color="#FFB38F"/>
<stop offset="1" stop-color="#FF854A"/>
</linearGradient>
<linearGradient id="paint3_linear_431_2508" x1="1104" y1="3" x2="1122.18" y2="2003.03" gradientUnits="userSpaceOnUse">
<stop stop-color="#FFDAC7"/>
<stop offset="1" stop-color="#FFBA97"/>
</linearGradient>
</defs>
</svg>
