<svg width="30" height="36" viewBox="0 0 30 36" fill="none" xmlns="http://www.w3.org/2000/svg">
<path fill-rule="evenodd" clip-rule="evenodd" d="M5.65039 19.2265V34.0481C5.65039 35.3636 7.0605 36.1881 8.19385 35.5354L14.8788 31.6861L21.8234 35.5825C22.9566 36.2181 24.3504 35.3923 24.3504 34.0856V19.2265C24.3504 18.2804 23.5893 17.5134 22.6504 17.5134H7.35039C6.41152 17.5134 5.65039 18.2804 5.65039 19.2265Z" fill="#97A4A4"/>
<path fill-rule="evenodd" clip-rule="evenodd" d="M8.01367 20.2973V31.6697C8.01367 32.3274 8.71875 32.7397 9.2854 32.4134L14.9097 29.1748L20.7239 32.4368C21.2904 32.7547 21.9873 32.3419 21.9873 31.6884V20.2973C21.9873 19.3512 21.2262 18.5842 20.2873 18.5842H9.71367C8.7748 18.5842 8.01367 19.3512 8.01367 20.2973Z" fill="#E1EEEE"/>
<path d="M0 0H30V16.8541C30 17.5639 29.6238 18.2205 29.0114 18.5795L16.4785 25.9264C15.8716 26.2822 15.1223 26.2929 14.5054 25.9546L1.03833 18.5694C0.398024 18.2183 0 17.5461 0 16.8158V0Z" fill="url(#paint0_linear_431_2541)"/>
<g filter="url(#filter0_d_431_2541)">
<path d="M4 3H26V15.4557C26 16.1565 25.6332 16.8062 25.0331 17.1682L16.3662 22.397C15.7486 22.7696 14.9782 22.7808 14.3501 22.4262L5.01699 17.1589C4.38863 16.8042 4 16.1386 4 15.4171V3Z" fill="#E0EDED"/>
</g>
<path d="M12.5098 15.2148L13.1133 14.0723C13.4297 14.3184 13.7461 14.5059 14.0625 14.6348C14.3789 14.7598 14.6914 14.8223 15 14.8223C15.3086 14.8223 15.5801 14.7637 15.8145 14.6465C16.0527 14.5254 16.2383 14.3594 16.3711 14.1484C16.5078 13.9375 16.5762 13.6934 16.5762 13.416C16.5762 12.9668 16.3945 12.6172 16.0312 12.3672C15.668 12.1133 15.1641 11.9863 14.5195 11.9863H14.1738V10.9023H14.5195C14.8711 10.9023 15.1836 10.8438 15.457 10.7266C15.7305 10.6094 15.9453 10.4492 16.1016 10.2461C16.2578 10.0391 16.3359 9.80469 16.3359 9.54297C16.3359 9.32031 16.2793 9.12305 16.166 8.95117C16.0527 8.77539 15.8945 8.63867 15.6914 8.54102C15.4922 8.43945 15.2637 8.38867 15.0059 8.38867C14.748 8.38867 14.4805 8.44531 14.2031 8.55859C13.9297 8.66797 13.6523 8.83008 13.3711 9.04492L12.6797 7.97266C13.0195 7.67188 13.4004 7.44141 13.8223 7.28125C14.248 7.11719 14.6914 7.03516 15.1523 7.03516C15.6641 7.03516 16.1191 7.13086 16.5176 7.32227C16.916 7.51367 17.2285 7.77539 17.4551 8.10742C17.6855 8.43945 17.8008 8.82031 17.8008 9.25C17.8008 9.73047 17.6562 10.1621 17.3672 10.5449C17.082 10.9277 16.709 11.2129 16.248 11.4004C16.8496 11.5566 17.3223 11.8301 17.666 12.2207C18.0137 12.6074 18.1875 13.0781 18.1875 13.6328C18.1875 14.1211 18.0547 14.5586 17.7891 14.9453C17.5234 15.3281 17.1621 15.6289 16.7051 15.8477C16.248 16.0664 15.7266 16.1758 15.1406 16.1758C14.6523 16.1758 14.1836 16.0938 13.7344 15.9297C13.2852 15.7656 12.877 15.5273 12.5098 15.2148Z" fill="#98A5A5"/>
<defs>
<filter id="filter0_d_431_2541" x="2" y="2" width="26" height="23.6846" filterUnits="userSpaceOnUse" color-interpolation-filters="sRGB">
<feFlood flood-opacity="0" result="BackgroundImageFix"/>
<feColorMatrix in="SourceAlpha" type="matrix" values="0 0 0 0 0 0 0 0 0 0 0 0 0 0 0 0 0 0 127 0" result="hardAlpha"/>
<feOffset dy="1"/>
<feGaussianBlur stdDeviation="1"/>
<feComposite in2="hardAlpha" operator="out"/>
<feColorMatrix type="matrix" values="0 0 0 0 0.346444 0 0 0 0 0.380159 0 0 0 0 0.380159 0 0 0 1 0"/>
<feBlend mode="normal" in2="BackgroundImageFix" result="effect1_dropShadow_431_2541"/>
<feBlend mode="normal" in="SourceGraphic" in2="effect1_dropShadow_431_2541" result="shape"/>
</filter>
<linearGradient id="paint0_linear_431_2541" x1="15" y1="0" x2="15" y2="26.5" gradientUnits="userSpaceOnUse">
<stop stop-color="#99A6A6"/>
<stop offset="1" stop-color="#94A1A1"/>
</linearGradient>
</defs>
</svg>
