<svg width="20" height="20" viewBox="0 0 20 20" fill="none" xmlns="http://www.w3.org/2000/svg">
<g id="Group 1261153690">
<path id="Subtract" fill-rule="evenodd" clip-rule="evenodd" d="M10 20C15.5229 20 20 15.5229 20 10C20 4.47715 15.5229 0 10 0C4.47715 0 0 4.47715 0 10C0 15.5229 4.47715 20 10 20ZM10.004 9.19425C11.3167 9.19425 12.381 8.13005 12.381 6.81731C12.381 5.50457 11.3167 4.44037 10.004 4.44037C8.69127 4.44037 7.62707 5.50457 7.62707 6.81731C7.62707 8.13005 8.69127 9.19425 10.004 9.19425ZM8.27539 10.1436C6.34239 10.1436 4.77539 11.7106 4.77539 13.6436V13.8974C4.77539 14.4497 5.2231 14.8974 5.77539 14.8974H10.0047H14.2339C14.7862 14.8974 15.2339 14.4497 15.2339 13.8974V13.6436C15.2339 11.7106 13.6669 10.1436 11.7339 10.1436H8.27539Z" fill="#C9FDD9"/>
</g>
</svg>
