<svg width="42" height="42" viewBox="0 0 42 42" fill="none" xmlns="http://www.w3.org/2000/svg">
<rect width="42" height="42" rx="8" fill="black"/>
<path d="M13.9385 27.0309C14.006 26.9501 14.0868 26.886 14.176 26.8423C14.2653 26.7985 14.3612 26.7761 14.4581 26.7762H32.4847C32.8055 26.7762 32.9749 27.2487 32.7445 27.5244L29.1889 31.7454C29.1213 31.8261 29.0406 31.8903 28.9513 31.934C28.8621 31.9777 28.7662 32.0002 28.6693 32H10.6246C10.3038 32 10.1344 31.5275 10.3648 31.2545L13.934 27.0309H13.9385Z" fill="url(#paint0_linear_960_1800)"/>
<path d="M13.9385 11.2546C14.006 11.1739 14.0868 11.1098 14.176 11.066C14.2653 11.0223 14.3612 10.9998 14.4581 11H32.4847C32.8055 11 32.9749 11.4725 32.7445 11.7455L29.1889 15.9691C29.1213 16.0499 29.0406 16.114 28.9513 16.1578C28.8621 16.2015 28.7662 16.2239 28.6693 16.2238H10.6246C10.3038 16.2238 10.1344 15.7513 10.3648 15.4756L13.934 11.2546H13.9385Z" fill="url(#paint1_linear_960_1800)"/>
<path d="M29.1722 19.0982C29.1047 19.0175 29.024 18.9533 28.9347 18.9096C28.8455 18.8658 28.7495 18.8434 28.6527 18.8436H10.6261C10.3053 18.8436 10.1359 19.3161 10.3663 19.5891L13.9219 23.8101C13.9894 23.8908 14.0702 23.955 14.1594 23.9987C14.2487 24.0424 14.3446 24.0649 14.4415 24.0647H32.4681C32.7889 24.0647 32.9583 23.5922 32.7279 23.3192L29.1722 19.0982Z" fill="url(#paint2_linear_960_1800)"/>
<defs>
<linearGradient id="paint0_linear_960_1800" x1="10.7123" y1="30.9501" x2="32.4854" y2="28.6079" gradientUnits="userSpaceOnUse">
<stop stop-color="#9648FC"/>
<stop offset="1" stop-color="#399AB4"/>
</linearGradient>
<linearGradient id="paint1_linear_960_1800" x1="9.35692" y1="15.9875" x2="33.2531" y2="12.4622" gradientUnits="userSpaceOnUse">
<stop stop-color="#5B7ACD"/>
<stop offset="1" stop-color="#03CB8C"/>
</linearGradient>
<linearGradient id="paint2_linear_960_1800" x1="10.7124" y1="18.35" x2="35.9549" y2="21.8726" gradientUnits="userSpaceOnUse">
<stop stop-color="#6A70DC"/>
<stop offset="1" stop-color="#2EA7AE"/>
</linearGradient>
</defs>
</svg>
