<svg width="16" height="17" viewBox="0 0 16 17" fill="none" xmlns="http://www.w3.org/2000/svg">
<g clip-path="url(#clip0_5073_2709)">
<path d="M1.63403 12.4987C2.29416 13.4168 3.14091 14.1852 4.11878 14.7532C5.09665 15.3212 6.18353 15.676 7.30813 15.7945C6.72957 14.9238 5.88851 14.1228 4.83853 13.5129C3.78855 12.903 2.6766 12.5699 1.63403 12.4987Z" fill="url(#paint0_linear_5073_2709)"/>
<path d="M6.24945 11.0845C4.22655 9.90932 2.03709 9.60982 0.470459 10.1389C0.621698 10.6388 0.821158 11.1227 1.06602 11.5839C2.42716 11.5524 3.91328 11.9221 5.29613 12.7253C6.67898 13.5285 7.73661 14.637 8.38386 15.8353C8.90611 15.8192 9.42561 15.7527 9.93511 15.6366C9.61842 14.0139 8.2718 12.26 6.24945 11.0845Z" fill="url(#paint1_linear_5073_2709)"/>
<path d="M15.8894 6.3142C15.6322 5.26808 15.1669 4.2845 14.5211 3.4222C13.8754 2.5599 13.0624 1.83657 12.1309 1.2954C11.1994 0.754228 10.1684 0.406313 9.09949 0.272429C8.03056 0.138545 6.94562 0.221438 5.90942 0.516157C7.64049 0.728009 9.56199 1.37785 11.4464 2.47259C13.3308 3.56732 14.8484 4.91442 15.8894 6.3142Z" fill="url(#paint2_linear_5073_2709)"/>
<path d="M13.3707 10.1508C12.4846 8.67934 10.9668 7.27022 9.09694 6.18399C7.22707 5.09773 5.25158 4.47727 3.53586 4.43623C2.02643 4.40048 0.893564 4.83927 0.428554 5.6398C0.425906 5.64457 0.422198 5.64907 0.419285 5.65384C0.377445 5.80398 0.341431 5.95439 0.308594 6.10534C0.957914 5.849 1.71025 5.70627 2.54679 5.69038C4.40709 5.65542 6.48906 6.25046 8.41025 7.36666C10.3314 8.48284 11.8809 9.99728 12.7717 11.6301C13.1711 12.3658 13.4203 13.09 13.519 13.782C13.6339 13.6792 13.7468 13.573 13.8561 13.4626C13.859 13.4576 13.8609 13.4523 13.8638 13.447C14.3288 12.6457 14.149 11.4445 13.3707 10.1508Z" fill="url(#paint3_linear_5073_2709)"/>
<path d="M7.67425 8.63241C4.81085 6.96885 1.64661 6.70829 0.125 7.86923C0.127989 8.2326 0.155769 8.59535 0.20815 8.95498C0.655756 8.81929 1.11707 8.73385 1.58358 8.70023C3.28394 8.57229 5.15855 9.04604 6.85969 10.0349C8.56087 11.0237 9.90188 12.4182 10.6333 13.9575C10.8354 14.3792 10.9896 14.8223 11.093 15.2784C11.4314 15.1457 11.7604 14.9903 12.0778 14.8132C12.3326 12.916 10.5385 10.2962 7.67425 8.63241Z" fill="url(#paint4_linear_5073_2709)"/>
<path d="M14.8435 7.68781C13.9473 6.21786 12.4162 4.80483 10.5331 3.71142C8.65003 2.61801 6.66684 1.98776 4.94556 1.93718C3.63342 1.89931 2.61707 2.21734 2.09009 2.81821C4.27823 2.44747 7.16441 3.07057 9.96191 4.69573C12.7593 6.32088 14.7312 8.51988 15.4922 10.6042C15.7531 9.84925 15.5262 8.80881 14.8435 7.68781Z" fill="url(#paint5_linear_5073_2709)"/>
</g>
<defs>
<linearGradient id="paint0_linear_5073_2709" x1="10.6229" y1="3.38411" x2="3.38009" y2="15.8353" gradientUnits="userSpaceOnUse">
<stop offset="0.0001" stop-color="#A4D756"/>
<stop offset="1" stop-color="#00B6E7"/>
</linearGradient>
<linearGradient id="paint1_linear_5073_2709" x1="10.623" y1="3.38408" x2="3.38013" y2="15.8353" gradientUnits="userSpaceOnUse">
<stop offset="0.0001" stop-color="#A4D756"/>
<stop offset="1" stop-color="#00B6E7"/>
</linearGradient>
<linearGradient id="paint2_linear_5073_2709" x1="10.6232" y1="3.3841" x2="3.38033" y2="15.8353" gradientUnits="userSpaceOnUse">
<stop offset="0.0001" stop-color="#A4D756"/>
<stop offset="1" stop-color="#00B6E7"/>
</linearGradient>
<linearGradient id="paint3_linear_5073_2709" x1="10.6231" y1="3.38411" x2="3.38028" y2="15.8353" gradientUnits="userSpaceOnUse">
<stop offset="0.0001" stop-color="#A4D756"/>
<stop offset="1" stop-color="#00B6E7"/>
</linearGradient>
<linearGradient id="paint4_linear_5073_2709" x1="10.6231" y1="3.38412" x2="3.38021" y2="15.8353" gradientUnits="userSpaceOnUse">
<stop offset="0.0001" stop-color="#A4D756"/>
<stop offset="1" stop-color="#00B6E7"/>
</linearGradient>
<linearGradient id="paint5_linear_5073_2709" x1="10.623" y1="3.38408" x2="3.38018" y2="15.8353" gradientUnits="userSpaceOnUse">
<stop offset="0.0001" stop-color="#A4D756"/>
<stop offset="1" stop-color="#00B6E7"/>
</linearGradient>
<clipPath id="clip0_5073_2709">
<rect width="16" height="16" fill="white" transform="translate(0 0.0227661)"/>
</clipPath>
</defs>
</svg>
