<svg width="20" height="16" viewBox="0 0 20 16" fill="none" xmlns="http://www.w3.org/2000/svg">
<path d="M18.2956 0.141264C18.2956 0.141264 20.1456 -0.551304 19.9908 1.13052C19.9399 1.82309 19.4775 4.2473 19.1175 6.86901L17.8842 14.6358C17.8842 14.6358 17.7813 15.7737 16.8561 15.9716C15.9313 16.1691 14.5437 15.279 14.2866 15.0811C14.0809 14.9325 10.4324 12.7062 9.14763 11.6182C8.78763 11.3211 8.37621 10.7277 9.19906 10.0352L14.5947 5.08799C15.2113 4.49462 15.828 3.10948 13.2585 4.7913L6.06339 9.49071C6.06339 9.49071 5.24102 9.98579 3.69961 9.54054L0.358706 8.55083C0.358706 8.55083 -0.874609 7.80889 1.2325 7.06695C6.37195 4.74193 12.6933 2.36754 18.2946 0.141264H18.2956Z" fill="#111E1E"/>
</svg>
