<svg width="25" height="25" viewBox="0 0 25 25" fill="none" xmlns="http://www.w3.org/2000/svg">
<path d="M12.5 0C14.1415 -2.44606e-08 15.813 0.224089 17.3295 0.852273C18.8461 1.48046 20.1461 2.53245 21.3068 3.69318C22.4676 4.85391 23.5195 6.15388 24.1477 7.67045C24.7759 9.18702 25 10.8585 25 12.5C25 14.1415 24.7759 15.813 24.1477 17.3295C23.5195 18.8461 22.4676 20.1461 21.3068 21.3068C20.1461 22.4676 18.8461 23.5195 17.3295 24.1477C15.813 24.7759 14.1415 25 12.5 25C9.18479 25 6.03739 23.651 3.69318 21.3068C1.34898 18.9626 0 15.8152 0 12.5C0 9.18479 1.34898 6.03739 3.69318 3.69318C6.03739 1.34898 9.18479 4.94004e-08 12.5 0ZM17.8977 8.80682C17.7219 8.63149 17.2937 8.52273 17.0455 8.52273C16.7972 8.52273 16.6531 8.63149 16.4773 8.80682L11.0795 14.2045L8.52273 11.9318C8.34552 11.7611 8.2006 11.6451 7.95455 11.6477C7.70849 11.6503 7.27586 11.7574 7.10227 11.9318C6.92868 12.1062 6.8196 12.2539 6.81818 12.5C6.81677 12.7461 6.9307 12.8918 7.10227 13.0682L10.2273 16.1932C10.4035 16.3681 10.8313 16.4779 11.0795 16.4773C11.3278 16.4767 11.4724 16.3689 11.6477 16.1932L17.8977 9.94318C18.0731 9.76739 18.1818 9.62328 18.1818 9.375C18.1818 9.12672 18.0731 8.98261 17.8977 8.80682Z" fill="#2DDDA4"/>
</svg>
