<svg width="70" height="70" viewBox="0 0 70 70" fill="none" xmlns="http://www.w3.org/2000/svg">
<circle cx="35" cy="35" r="35" fill="#FAFAFA"/>
<rect width="37.6923" height="37.6923" transform="translate(16.1543 16.1538)" fill="white"/>
<path fill-rule="evenodd" clip-rule="evenodd" d="M35.0009 52.3964C44.6087 52.3964 52.3974 44.6078 52.3974 35C52.3974 25.3922 44.6087 17.6035 35.0009 17.6035C25.3931 17.6035 17.6045 25.3922 17.6045 35C17.6045 44.6078 25.3931 52.3964 35.0009 52.3964ZM28.4039 29.3552C28.4923 29.1419 28.622 28.948 28.7854 28.7847C28.9486 28.6213 29.1425 28.4917 29.3559 28.4032C29.5693 28.3148 29.798 28.2692 30.029 28.2692C30.26 28.2692 30.4887 28.3148 30.7021 28.4032C30.9155 28.4917 31.1094 28.6213 31.2726 28.7847L35.0008 32.5147L38.7291 28.7847C38.8924 28.6214 39.0862 28.4919 39.2996 28.4035C39.513 28.3151 39.7417 28.2696 39.9727 28.2696C40.2036 28.2696 40.4323 28.3151 40.6457 28.4035C40.8591 28.4919 41.053 28.6214 41.2163 28.7847C41.3796 28.9481 41.5091 29.1419 41.5975 29.3553C41.6859 29.5687 41.7314 29.7974 41.7314 30.0284C41.7314 30.2593 41.6859 30.488 41.5975 30.7014C41.5091 30.9148 41.3796 31.1087 41.2163 31.272L37.4863 35.0002L41.2163 38.7284C41.3796 38.8917 41.5091 39.0856 41.5975 39.299C41.6859 39.5124 41.7314 39.7411 41.7314 39.972C41.7314 40.203 41.6859 40.4317 41.5975 40.6451C41.5091 40.8584 41.3796 41.0523 41.2163 41.2156C41.053 41.379 40.8591 41.5085 40.6457 41.5969C40.4323 41.6853 40.2036 41.7308 39.9727 41.7308C39.7417 41.7308 39.513 41.6853 39.2996 41.5969C39.0862 41.5085 38.8924 41.379 38.7291 41.2156L35.0008 37.4857L31.2726 41.2156C31.1093 41.379 30.9154 41.5085 30.7021 41.5969C30.4887 41.6853 30.26 41.7308 30.029 41.7308C29.7981 41.7308 29.5694 41.6853 29.356 41.5969C29.1426 41.5085 28.9487 41.379 28.7854 41.2156C28.6221 41.0523 28.4925 40.8584 28.4042 40.6451C28.3158 40.4317 28.2703 40.203 28.2703 39.972C28.2703 39.7411 28.3158 39.5124 28.4042 39.299C28.4925 39.0856 28.6221 38.8917 28.7854 38.7284L32.5154 35.0002L28.7854 31.272C28.622 31.1087 28.4923 30.9149 28.4039 30.7015C28.3154 30.4881 28.2699 30.2594 28.2699 30.0284C28.2699 29.7974 28.3154 29.5686 28.4039 29.3552Z" fill="#FF4D00"/>
</svg>
