<svg width="32" height="32" viewBox="0 0 32 32" fill="none" xmlns="http://www.w3.org/2000/svg">
<rect width="32" height="32" rx="8" fill="black"/>
<path fill-rule="evenodd" clip-rule="evenodd" d="M18.6389 7.01922C18.6281 7.03242 18.5588 7.14204 18.4852 7.2628C18.0164 8.03103 17.3661 8.95785 16.6796 9.83585C16.5299 10.0273 16.506 10.0548 16.4883 10.0552C16.4784 10.0555 16.1444 9.62759 15.899 9.30028C15.3647 8.58762 14.9147 7.93245 14.5382 7.31925C14.3901 7.07804 14.3645 7.04324 14.3352 7.04324C14.2591 7.04324 12.8952 8.28275 12.0527 9.11755C11.9274 9.24175 11.9272 9.24096 12.1054 9.35555C13.0444 9.95937 15.1531 11.656 15.0877 11.7549C14.9567 11.9529 12.7664 14.2719 12.504 14.4904L12.4679 14.5205L12.4406 14.4851C12.4256 14.4656 12.3055 14.3116 12.1738 14.1429C11.4305 13.1911 10.7364 12.1898 10.2681 11.3934C10.1362 11.1691 10.1312 11.1628 10.0978 11.1817C9.99047 11.2426 8.07286 13.5634 8.03178 13.6821C8.0224 13.7093 8.03909 13.7256 8.16183 13.8089C8.75091 14.2086 9.44404 14.7352 10.0733 15.261C10.452 15.5775 10.8903 15.9612 10.8901 15.9762C10.8886 16.0859 8.98479 17.6065 8.14887 18.1657C8.01759 18.2535 8.00036 18.2689 8 18.2991C7.99918 18.3693 10.0334 20.8279 10.0922 20.8279C10.1159 20.8279 10.1348 20.8008 10.2553 20.5946C10.7207 19.7984 11.4218 18.7883 12.2364 17.7403C12.3449 17.6006 12.4449 17.4781 12.4586 17.4679C12.4865 17.4473 12.554 17.5116 13.2298 18.2018C13.8059 18.7902 15.05 20.1369 15.0953 20.2212C15.1101 20.2489 15.0833 20.2749 14.6792 20.6245C13.7271 21.4486 12.8355 22.1347 12.0569 22.6424C11.8747 22.7613 11.8722 22.7455 12.1113 22.9851C12.7711 23.6464 14.1629 24.9305 14.2849 24.9906C14.3222 25.009 14.3004 25.0382 14.527 24.6655C14.9484 23.9724 15.5456 23.1182 16.2136 22.2531C16.3514 22.0746 16.4723 21.9252 16.4822 21.9212C16.5561 21.8912 17.7617 23.5484 18.3526 24.492C18.4825 24.6995 18.5981 24.8832 18.6093 24.9002C18.655 24.9692 18.8768 24.7863 19.9183 23.8199C21.0426 22.7768 21.0753 22.7387 20.9284 22.642C20.5075 22.3654 19.8271 21.8694 19.374 21.5091C18.7002 20.9733 17.8963 20.2811 17.8963 20.2367C17.8963 20.1652 19.3813 18.5673 20.2456 17.7088C20.3899 17.5653 20.5082 17.4433 20.5082 17.4376C20.5082 17.4166 19.8935 16.67 19.5064 16.2206L19.3018 15.9833L19.4934 15.7604C19.7584 15.4523 20.0373 15.1186 20.2875 14.8104C20.545 14.4933 20.484 14.4972 20.7758 14.7789C21.0984 15.0905 21.506 15.4713 21.8075 15.7432C22.0976 16.0047 22.0924 15.9667 21.8665 16.1689C21.4651 16.5284 20.5211 17.4192 20.5211 17.4385C20.5211 17.4428 20.5743 17.514 20.6396 17.5967C21.4886 18.6743 22.2163 19.7142 22.713 20.5592C22.8747 20.8342 22.8623 20.8269 22.9684 20.7095C23.6216 19.9867 24.9666 18.3473 24.9669 18.2736C24.967 18.2594 24.889 18.1982 24.7566 18.1089C23.9708 17.578 22.1025 16.0807 22.1025 15.9816C22.1025 15.9268 23.2621 14.9574 23.9543 14.4336C24.217 14.2349 24.8405 13.7914 24.9438 13.73C25.0339 13.6763 25.0411 13.6923 24.772 13.3466C24.2575 12.6859 23.4197 11.6826 22.982 11.2031C22.8873 11.0996 22.9029 11.0872 22.6989 11.4287C22.2116 12.2447 21.6049 13.1224 20.883 14.0556C20.6116 14.4066 20.5207 14.5175 20.5082 14.5127C20.4228 14.4794 17.9117 11.8217 17.8797 11.7307C17.8729 11.7115 18.6036 11.0794 19.0888 10.6849C19.751 10.1463 20.3166 9.72887 20.968 9.29788C21.034 9.25417 21.0654 9.22488 21.0654 9.20714C21.0654 9.14348 19.6642 7.8361 18.8521 7.14208C18.6657 6.9828 18.6678 6.984 18.6389 7.01922ZM16.64 10.2578C16.9272 10.6185 17.5621 11.3779 17.7689 11.6082C17.8773 11.7289 17.8881 11.7071 17.5819 11.9856C17.166 12.3638 16.5152 12.981 16.5056 13.0061C16.5017 13.0163 16.5157 13.0307 16.9174 13.4321C17.7191 14.2331 19.2897 15.9214 19.2897 15.9821C19.2897 16.021 18.1714 17.246 17.54 17.8988C17.2077 18.2424 16.6075 18.8461 16.5194 18.9255L16.4909 18.9512L16.2092 18.6717C15.4678 17.9357 14.6463 17.0659 13.9512 16.281L13.6874 15.9831L13.8411 15.8089C14.6139 14.9324 15.5317 13.96 16.3052 13.1981C16.3997 13.1051 16.477 13.0214 16.477 13.0121C16.477 12.9855 16.0067 12.5334 15.4244 12.0004C15.2697 11.8588 15.1396 11.7368 15.1352 11.7293C15.1308 11.7217 15.2141 11.6153 15.3203 11.4927C15.6026 11.1669 15.9278 10.7781 16.2211 10.4157C16.5245 10.0409 16.4805 10.0575 16.64 10.2578ZM12.6825 14.7873C12.9577 15.1256 13.233 15.4553 13.4728 15.7338C13.7162 16.0165 13.7106 15.9536 13.5131 16.1837C13.2442 16.4969 12.9592 16.8377 12.7134 17.14C12.4382 17.4785 12.505 17.4691 12.2353 17.2082C11.9024 16.8861 11.5541 16.5601 11.2306 16.2676C10.8807 15.9512 10.8785 16.0174 11.25 15.6801C11.5873 15.3739 12.0337 14.9548 12.2967 14.6975C12.3894 14.6069 12.4697 14.5354 12.4751 14.5387C12.4806 14.542 12.5739 14.6539 12.6825 14.7873ZM16.6731 19.1286C16.9344 19.3805 17.3494 19.7692 17.6143 20.0103C17.8919 20.2629 17.8802 20.225 17.7328 20.3959C17.4712 20.6991 16.9991 21.2634 16.7687 21.5484C16.6345 21.7144 16.5172 21.855 16.5082 21.8607C16.4845 21.8757 16.4565 21.8452 16.1901 21.514C15.9332 21.1948 15.5252 20.7072 15.2802 20.4268C15.1958 20.3303 15.1287 20.2456 15.1311 20.2388C15.1334 20.2317 15.252 20.1201 15.3946 19.9904C15.6923 19.7198 16.1018 19.3356 16.3279 19.115C16.5154 18.9319 16.4671 18.93 16.6731 19.1286Z" fill="white"/>
</svg>
