<svg width="44" height="44" viewBox="0 0 44 44" fill="none" xmlns="http://www.w3.org/2000/svg">
<rect width="44" height="44" rx="8" fill="#51A1E3"/>
<path d="M29.9547 13.1766C29.9547 13.1766 32.1747 12.3109 31.989 14.4131C31.9278 15.2788 31.373 18.3091 30.941 21.5862L29.461 31.2946C29.461 31.2946 29.3376 32.7169 28.2273 32.9643C27.1176 33.2111 25.4525 32.0986 25.1439 31.8512C24.8971 31.6655 20.5188 28.8826 18.9772 27.5227C18.5452 27.1512 18.0515 26.4095 19.0389 25.5438L25.5136 19.3599C26.2536 18.6182 26.9936 16.8868 23.9102 18.9891L15.2761 24.8633C15.2761 24.8633 14.2892 25.4821 12.4395 24.9256L8.43045 23.6884C8.43045 23.6884 6.95047 22.761 9.479 21.8336C15.6463 18.9274 23.2319 15.9594 29.9536 13.1766H29.9547Z" fill="white"/>
</svg>
