<svg width="17" height="20" viewBox="0 0 17 20" fill="none" xmlns="http://www.w3.org/2000/svg">
<path d="M14.8746 6.66667H13.8119V4.76234C13.8119 2.1333 11.4331 0 8.5 0C5.56775 0 3.18811 2.1333 3.18811 4.76158V6.66667H2.12541C0.951529 6.66667 -2.8739e-08 7.51908 0 8.571V18.0949C0 19.1476 0.951529 20 2.12541 20H14.8746C16.0485 20 17 19.1476 17 18.0957V8.571C17 7.51833 16.0485 6.66591 14.8746 6.66591V6.66667ZM8.50082 15.2384C7.32694 15.2384 6.37541 14.386 6.37541 13.3333C6.37541 12.2807 7.32694 11.429 8.50082 11.429C9.6747 11.429 10.6262 12.2807 10.6262 13.3333C10.6262 14.386 9.6747 15.2377 8.50082 15.2377V15.2384ZM11.7952 6.66667H5.20643V4.76234C5.20643 3.13308 6.68359 1.80987 8.50082 1.80987C10.3172 1.80987 11.7936 3.13308 11.7936 4.76158V6.66667H11.7952Z" fill="#C9FDD9"/>
</svg>
